<svg id="visual" viewBox="0 0 540 960" width="540" height="960" xmlns="http://www.w3.org/2000/svg" xmlns:xlink="http://www.w3.org/1999/xlink" version="1.1"><rect x="0" y="0" width="540" height="960" fill="#3B3347"></rect><defs><linearGradient id="grad1_0" x1="0%" y1="0%" x2="100%" y2="100%"><stop offset="30%" stop-color="#3b3347" stop-opacity="1"></stop><stop offset="70%" stop-color="#3b3347" stop-opacity="1"></stop></linearGradient></defs><defs><linearGradient id="grad2_0" x1="0%" y1="0%" x2="100%" y2="100%"><stop offset="30%" stop-color="#3b3347" stop-opacity="1"></stop><stop offset="70%" stop-color="#3b3347" stop-opacity="1"></stop></linearGradient></defs><g transform="translate(540, 0)"><path d="M0 486C-53.7 446.6 -107.3 407.3 -156.9 378.8C-206.5 350.3 -252 332.7 -304.8 304.8C-357.5 276.8 -417.6 238.5 -449 186C-480.4 133.5 -483.2 66.7 -486 0L0 0Z" fill="#454F69"></path></g><g transform="translate(0, 960)"><path d="M0 -486C65.2 -481.3 130.4 -476.6 186 -449C241.6 -421.5 287.5 -371.1 320.3 -320.3C353.1 -269.6 372.8 -218.4 398.2 -164.9C423.6 -111.5 454.8 -55.7 486 0L0 0Z" fill="#454F69"></path></g></svg>